<svg xmlns="http://www.w3.org/2000/svg" viewBox="0 0 900 900" role="img" aria-labelledby="title"><title id="title">Hausmeisterzentrale Jüstel &amp; Gebäudeservice GmbH &amp; Co. KG</title><defs><linearGradient id="warm" x1="0" y1="0" x2="1" y2="1"><stop offset="0" stop-color="#e8392c"/><stop offset=".55" stop-color="#f47a12"/><stop offset="1" stop-color="#ffd400"/></linearGradient><linearGradient id="warm2" x1="0" y1="0" x2="1" y2="0"><stop offset="0" stop-color="#e8392c"/><stop offset="1" stop-color="#ffd400"/></linearGradient><path id="arcTop" d="M165 450a285 285 0 0 1 570 0"/><path id="arcBottom" d="M160 470a290 290 0 0 0 580 0"/></defs><rect width="900" height="900" fill="#fff"/><circle cx="450" cy="450" r="440" fill="none" stroke="#2f2178" stroke-width="17"/><text fill="#2f2178" font-family="Arial,Helvetica,sans-serif" font-size="75" font-weight="700"><textPath href="#arcTop" startOffset="50%" text-anchor="middle">Jüstel</textPath></text><text fill="#2f2178" font-family="Arial,Helvetica,sans-serif" font-size="58"><textPath href="#arcBottom" startOffset="50%" text-anchor="middle">GmbH &amp; Co. KG</textPath></text><text x="95" y="690" fill="#2f2178" font-family="Arial,Helvetica,sans-serif" font-size="55" transform="rotate(-67 95 690)">Hausmeisterzentrale</text><text x="745" y="238" fill="#2f2178" font-family="Arial,Helvetica,sans-serif" font-size="55" transform="rotate(67 745 238)">&amp; Gebäudeservice</text><path d="M245 438 C330 423 390 345 430 224" fill="none" stroke="url(#warm)" stroke-width="42" stroke-linecap="round"/><path d="M450 210 C500 365 604 425 708 434" fill="none" stroke="url(#warm)" stroke-width="44" stroke-linecap="round"/><path d="M392 447 C470 447 528 439 594 422" fill="none" stroke="url(#warm2)" stroke-width="38" stroke-linecap="round"/><path d="M326 462 C328 568 326 650 306 708" fill="none" stroke="#2f2178" stroke-width="43" stroke-linecap="round"/><path d="M599 455 C599 575 603 664 651 706" fill="none" stroke="#2f2178" stroke-width="43" stroke-linecap="round"/><path d="M304 711 C410 685 531 688 648 714" fill="none" stroke="#2f2178" stroke-width="42" stroke-linecap="round"/></svg>